<svg height="512" viewBox="0 0 60 51" width="512" xmlns="http://www.w3.org/2000/svg"><g id="020---VW-Beetle" fill="none"><g fill="#7f8284"><path id="Shape" d="m15 51h-14c-.55228475 0-1-.4477153-1-1s.44771525-1 1-1h14c.5522847 0 1 .4477153 1 1s-.4477153 1-1 1z"/><path id="Shape" d="m20 51h-1c-.5522847 0-1-.4477153-1-1s.4477153-1 1-1h1c.5522847 0 1 .4477153 1 1s-.4477153 1-1 1z"/><path id="Shape" d="m59 51h-14c-.5522847 0-1-.4477153-1-1s.4477153-1 1-1h14c.5522847 0 1 .4477153 1 1s-.4477153 1-1 1z"/><path id="Shape" d="m41 51h-1c-.5522847 0-1-.4477153-1-1s.4477153-1 1-1h1c.5522847 0 1 .4477153 1 1s-.4477153 1-1 1z"/></g><path id="Shape" d="m4 38h8v10c0 1.1045695-.8954305 2-2 2h-4c-1.1045695 0-2-.8954305-2-2z" fill="#393f4a"/><path id="Shape" d="m48 38h8v10c0 1.1045695-.8954305 2-2 2h-4c-1.1045695 0-2-.8954305-2-2z" fill="#393f4a"/><path id="Shape" d="m39 40h17c1.6568542 0 3-1.3431458 3-3v-2c0-.5522847-.4477153-1-1-1l-19-4h-18l-19 4c-.55228475 0-1 .4477153-1 1v2c0 1.6568542 1.34314575 3 3 3z" fill="#7f8c8d"/><path id="Shape" d="m38.38 40h15.83c1.5980955-.0596698 2.8462587-1.4017808 2.79-3v-2c.0012903-.5260642-.4052246-.963177-.93-1h-52.14c-.52477544.036823-.93129033.4739358-.93 1v2c-.05625873 1.5982192 1.19190449 2.9403302 2.79 3z" fill="#95a5a5"/><path id="Shape" d="m21 34h18v6c0 .5522847-.4477153 1-1 1h-16c-.5522847 0-1-.4477153-1-1z" fill="#393f4a"/><path id="Shape" d="m48.45 8.23c-.8437774-4.2066083-4.539603-7.23274869-8.83-7.23h-19.24c-4.290397-.00274869-7.9862226 3.0233917-8.83 7.23l-1.55 7.77h40z" fill="#90bae1"/><path id="Shape" d="m43.83 2.05c-5.66.33-30.08 2.39-32.61 14h-1.22l1.55-7.77c.8228953-4.22648603 4.5241508-7.27803085 8.83-7.28h19.24c1.4679641.00142169 2.9132984.361897 4.21 1.05z" fill="#b0d3f0"/><path id="Shape" d="m50 19c-.4921797.0071559-.9163726-.3449242-1-.83l-1.56-8.8c-.73-4.27-4.03-7.37-7.82-7.37h-19.24c-3.79 0-7.09 3.1-7.84 7.37l-1.54 8.8c-.0938884.5522847-.6177153.9238884-1.17.83-.55228475-.0938884-.92388841-.6177153-.83-1.17l1.57-8.83c.92-5.23 5-9 9.81-9h19.24c4.76 0 8.89 3.8 9.81 9l1.57 8.83c.0506089.2931773-.0319521.5936652-.2252526.8198268s-.4772657.3545092-.7747474.3501732z" fill="#c03a2b"/><path id="Shape" d="m24 14c-.4062651.0023626-.77358-.2413038-.929371-.6165185-.1557909-.3752147-.0690889-.807391.219371-1.0934815l6-6c.3921222-.39212217 1.0278778-.39212217 1.42 0s.3921222 1.02787783 0 1.42l-6 6c-.1887188.1871865-.444197.2915368-.71.29z" fill="#7f8c8d"/><path id="Shape" d="m33 14c-.4062651.0023626-.77358-.2413038-.929371-.6165185-.1557909-.3752147-.0690889-.807391.219371-1.0934815l6-6c.3921222-.39212214 1.0278778-.39212212 1.42.00000004.3921221.39212215.3921221 1.02787778 0 1.41999996l-6 6c-.1887188.1871865-.444197.2915368-.71.29z" fill="#7f8c8d"/><path id="Shape" d="m30 34h-28.0000323l.0000323-8c-.01181159-4.1941893 3.21760562-7.6854512 7.4-8 3.5171701.2698965 6.5212011 2.6414999 7.6 6 2 6 4 10 13 10z" fill="#c03a2b"/><path id="Shape" d="m58 26 .0000282 8h-28.0000282c9 0 11-4 13-10 1.0760455-3.3521552 4.0703409-5.7223099 7.58-6 4.1903002.3045837 7.4310552 3.7986592 7.42 8z" fill="#c03a2b"/><path id="Shape" d="m51 18h-.42c-3.5096591.2776901-6.5039545 2.6478448-7.58 6-2 6-4 10-13 10s-11-4-13-10c-1.0760455-3.3521552-4.0703409-5.7223099-7.58-6h-.42c3-7 13-6 21-6s18-1 21 6z" fill="#e64c3c"/><circle id="Oval" cx="9" cy="26" fill="#7f8c8d" r="3"/><circle id="Oval" cx="51" cy="26" fill="#7f8c8d" r="3"/><path id="Shape" d="m30 18c-.5522847 0-1-.4477153-1-1v-1c0-.5522847.4477153-1 1-1s1 .4477153 1 1v1c0 .5522847-.4477153 1-1 1z" fill="#ecf0f1"/><path id="Shape" d="m9 30c-2.209139 0-4-1.790861-4-4s1.790861-4 4-4 4 1.790861 4 4-1.790861 4-4 4zm0-6c-1.1045695 0-2 .8954305-2 2s.8954305 2 2 2 2-.8954305 2-2-.8954305-2-2-2z" fill="#ecf0f1"/><path id="Shape" d="m51 30c-2.209139 0-4-1.790861-4-4s1.790861-4 4-4 4 1.790861 4 4-1.790861 4-4 4zm0-6c-1.1045695 0-2 .8954305-2 2s.8954305 2 2 2 2-.8954305 2-2-.8954305-2-2-2z" fill="#ecf0f1"/><path id="Shape" d="m30 31c-.5522847 0-1-.4477153-1-1v-9c0-.5522847.4477153-1 1-1s1 .4477153 1 1v9c0 .5522847-.4477153 1-1 1z" fill="#ecf0f1"/></g></svg>